Coordinates
version=1
nRows=60
nColumns=12
inDegrees=yes

Units are S.I. units (second, meters, Newtons, ...)
Angles are in degrees

endheader
time	SC_y	SC_z	SC_x	AC_y	AC_z	AC_x	GH_y	GH_z	GH_yy	EL_x	PS_y
       0.0              -25.49         0.8268          54.53          44.34        -0.4025          17.96         -28.93          86.54          163.4          117.8          78.46
   0.01944              -25.49         0.8301          54.53          44.34        -0.4045          17.96          -28.9          86.53          163.4          117.8          78.45
   0.03887              -25.49         0.8335          54.53          44.34        -0.4067          17.95         -28.87          86.53          163.4          117.7          78.45
   0.05831              -25.49         0.8371          54.52          44.34         -0.409          17.95         -28.84          86.52          163.3          117.7          78.44
   0.07774              -25.49          0.841          54.52          44.34        -0.4114          17.95         -28.81          86.52          163.3          117.7          78.44
   0.09718              -25.49         0.8452          54.52          44.34        -0.4141          17.95         -28.78          86.51          163.3          117.7          78.43
    0.1166              -25.49         0.8496          54.51          44.34        -0.4168          17.95         -28.74           86.5          163.3          117.7          78.42
     0.136              -25.49         0.8543          54.51          44.34        -0.4198          17.95         -28.71          86.49          163.3          117.7          78.41
    0.1555              -25.49         0.8594          54.51          44.34         -0.423          17.95         -28.67          86.48          163.3          117.7          78.41
    0.1749              -25.49         0.8648           54.5          44.34        -0.4264          17.95         -28.62          86.47          163.3          117.7           78.4
    0.1944              -25.49         0.8706           54.5          44.34        -0.4301          17.95         -28.58          86.46          163.3          117.7          78.39
    0.2138              -25.49         0.8769          54.49          44.34        -0.4341          17.95         -28.53          86.45          163.3          117.7          78.38
    0.2332              -25.49         0.8837          54.49          44.34        -0.4383          17.95         -28.47          86.44          163.3          117.6          78.37
    0.2527              -25.49          0.891          54.48          44.34        -0.4429          17.95         -28.41          86.43          163.3          117.6          78.35
    0.2721              -25.49         0.8989          54.48          44.33        -0.4479          17.95         -28.35          86.42          163.2          117.6          78.34
    0.2915              -25.49         0.9075          54.47          44.33        -0.4533          17.94         -28.28           86.4          163.2          117.6          78.33
     0.311              -25.49         0.9168          54.46          44.33        -0.4592          17.94         -28.21          86.38          163.2          117.6          78.31
    0.3304              -25.49          0.927          54.46          44.33        -0.4656          17.94         -28.13          86.37          163.2          117.6           78.3
    0.3498              -25.49         0.9381          54.45          44.33        -0.4726          17.94         -28.04          86.35          163.2          117.5          78.28
    0.3693              -25.49         0.9502          54.44          44.33        -0.4803          17.94         -27.94          86.33          163.2          117.5          78.26
    0.3887              -25.49         0.9635          54.43          44.33        -0.4887          17.94         -27.83           86.3          163.1          117.5          78.24
    0.4081               -25.5         0.9782          54.42          44.33        -0.4979          17.94         -27.72          86.28          163.1          117.5          78.21
    0.4276               -25.5         0.9944          54.41          44.33        -0.5081          17.93         -27.59          86.25          163.1          117.4          78.19
     0.447               -25.5          1.012          54.39          44.33        -0.5194          17.93         -27.44          86.22          163.1          117.4          78.16
    0.4665               -25.5          1.032          54.38          44.32         -0.532          17.93         -27.28          86.18          163.0          117.3          78.13
    0.4859               -25.5          1.055          54.36          44.32        -0.5461          17.93         -27.11          86.15          163.0          117.3          78.09
    0.5053               -25.5           1.08          54.34          44.32        -0.5618          17.92         -26.91           86.1          162.9          117.3          78.05
    0.5248               -25.5          1.108          54.32          44.32        -0.5795          17.92         -26.68          86.05          162.9          117.2           78.0
    0.5442               -25.5          1.139           54.3          44.32        -0.5995          17.91         -26.43           86.0          162.8          117.1          77.95
    0.5636               -25.5          1.175          54.27          44.31        -0.6222          17.91         -26.14          85.94          162.8          117.1          77.89
    0.5831               -25.5          1.217          54.24          44.31        -0.6481           17.9         -25.81          85.87          162.7          117.0          77.83
    0.6025               -25.5          1.264          54.21          44.31        -0.6778           17.9         -25.44          85.78          162.6          116.9          77.75
    0.6219               -25.5          1.318          54.16           44.3        -0.7121          17.89          -25.0          85.69          162.5          116.8          77.66
    0.6414               -25.5          1.381          54.12           44.3         -0.752          17.88          -24.5          85.58          162.4          116.6          77.56
    0.6608              -25.51          1.456          54.06          44.29        -0.7987          17.87          -23.9          85.45          162.3          116.5          77.44
    0.6802              -25.51          1.543           54.0          44.29        -0.8537          17.86         -23.21           85.3          162.2          116.3           77.3
    0.6997              -25.51          1.647          53.92          44.28        -0.9191          17.85         -22.38          85.12          162.0          116.1          77.13
    0.7191              -25.51          1.771          53.83          44.27        -0.9975          17.83         -21.39          84.91          161.8          115.9          76.93
    0.7386              -25.52          1.921          53.72          44.26         -1.092          17.81         -20.18          84.65          161.5          115.5          76.69
     0.758              -25.52          2.105          53.58          44.24         -1.208          17.79         -18.72          84.33          161.2          115.2          76.39
    0.7774              -25.53          2.332          53.41          44.23         -1.351          17.76          -16.9          83.94          160.8          114.7          76.02
    0.7969              -25.53          2.615           53.2           44.2         -1.529          17.72         -14.64          83.45          160.4          114.1          75.56
    0.8163              -25.54          2.971          52.94          44.18         -1.754          17.67          -11.8          82.83          159.8          113.4          74.98
    0.8357              -25.55          3.424           52.6          44.14         -2.039          17.61          -8.18          82.05          159.0          112.5          74.25
    0.8552              -25.57          4.004          52.17           44.1         -2.405          17.54         -3.549          81.05          158.1          111.3          73.31
    0.8746              -25.59          4.748          51.61          44.04         -2.874          17.44          2.394          79.76          156.8          109.8          72.11
     0.894              -25.61          5.699          50.91          43.97         -3.472          17.31          9.985          78.12          155.2          107.9          70.57
    0.9135              -25.64          6.894          50.02          43.88         -4.226          17.16          19.53          76.05          153.2          105.5          68.63
    0.9329              -25.67           8.35          48.93          43.77         -5.143          16.96          31.16          73.54          150.8          102.6          66.27
    0.9523              -25.71          10.04          47.68          43.64         -6.207          16.74          44.64          70.62          148.0          99.15          63.53
    0.9718              -25.75          11.87          46.32           43.5         -7.359           16.5          59.24          67.46          144.9          95.46          60.57
    0.9912               -25.8          13.69          44.96          43.36         -8.511          16.26          73.84           64.3          141.8          91.77          57.61
     1.011              -25.84          15.38           43.7          43.23         -9.574          16.04          87.32          61.38          139.0          88.36          54.88
      1.03              -25.87          16.84          42.62          43.12         -10.49          15.85          98.96          58.86          136.6          85.41          52.52
      1.05               -25.9          18.03          41.73          43.03         -11.25          15.69          108.5           56.8          134.6           83.0          50.58
     1.069              -25.92          18.98          41.03          42.96         -11.84          15.56          116.1          55.15          133.0          81.08          49.04
     1.088              -25.94          19.73          40.47           42.9         -12.31          15.47          122.0          53.87          131.8          79.58          47.83
     1.108              -25.96          20.31          40.04          42.86         -12.68          15.39          126.7          52.86          130.8          78.41          46.89
     1.127              -25.97          20.76           39.7          42.82         -12.96          15.33          130.3          52.08          130.0          77.49          46.16
     1.147              -25.98          21.12          39.44          42.79         -13.19          15.28          133.1          51.47          129.4          76.77          45.58
